<svg
        width="216"
        height="215"
        viewBox="0 0 216 215"
        fill="none"
        xmlns="http://www.w3.org/2000/svg"
        class="mijn-svg"
>
    <rect x="214.414" y="150.377" width="44.8426" height="72.2727" rx="8" transform="rotate(105 214.414 150.377)" fill="#F7339A"/>
    <rect x="12.8735" y="193.691" width="44.8426" height="72.2727" rx="8" transform="rotate(-105 12.8735 193.691)" fill="#FB2C36"/>
    <rect x="203.515" y="77.2859" width="48.1246" height="77.5622" rx="8" transform="rotate(75 203.515 77.2859)" fill="#8E51FF"/>
    <rect y="123.771" width="48.1246" height="77.5622" rx="8" transform="rotate(-75 0 123.771)" fill="#FF6900"/>
    <rect x="162.11" y="24.5228" width="48.1246" height="77.5622" rx="8" transform="rotate(45 162.11 24.5228)" fill="#00A6F5"/>
    <rect x="20.8733" y="58.5521" width="48.1246" height="77.5622" rx="8" transform="rotate(-45 20.8733 58.5521)" fill="#F0B200"/>
    <rect x="79.4346" y="14.666" width="56.242" height="86.3923" rx="8" fill="#00C951"/>
    <path d="M108.535 214.294C138.155 214.294 162.167 190.282 162.167 160.661C162.167 131.041 138.155 107.029 108.535 107.029C78.914 107.029 54.9017 131.041 54.9017 160.661C54.9017 190.282 78.914 214.294 108.535 214.294Z" fill="#FCC742"/>
    <path d="M108.535 162.691C133.992 162.691 154.63 142.053 154.63 116.596C154.63 91.1378 133.992 70.5003 108.535 70.5003C83.0769 70.5003 62.4393 91.1378 62.4393 116.596C62.4393 142.053 83.0769 162.691 108.535 162.691Z" fill="#FCC742"/>
    <path d="M146.403 146.864C157.771 146.864 166.987 137.648 166.987 126.28C166.987 114.912 157.771 105.697 146.403 105.697C135.035 105.697 125.82 114.912 125.82 126.28C125.82 137.648 135.035 146.864 146.403 146.864Z" fill="#FCC742"/>
    <path d="M62.1494 148.195C73.5173 148.195 82.7329 138.98 82.7329 127.612C82.7329 116.244 73.5173 107.029 62.1494 107.029C50.7815 107.029 41.566 116.244 41.566 127.612C41.566 138.98 50.7815 148.195 62.1494 148.195Z" fill="#FCC742"/>
    <path d="M121.905 149.05C121.864 156.624 116.052 163.055 108.356 163.711C100.696 164.363 93.901 159.059 92.5362 151.645C81.2118 154.92 72.1762 160.607 67.3836 167.329C63.8387 172.304 67.7334 179.153 73.8225 178.634L145.391 172.537C151.497 172.017 154.152 164.593 149.799 160.285C143.857 154.396 133.813 150.299 121.905 149.05Z" fill="#770BE3"/>
    <path d="M99.4664 108.751H76.4362C74.8475 108.751 73.5546 107.463 73.5546 105.869C73.5546 104.28 74.8417 102.987 76.4362 102.987H99.4664C101.055 102.987 102.348 104.274 102.348 105.869C102.342 107.458 101.055 108.751 99.4664 108.751Z" fill="#770BE3"/>
    <path d="M138.853 109.753L117.325 101.567C115.84 100.998 115.092 99.34 115.655 97.8499C116.223 96.3656 117.881 95.6176 119.371 96.18L140.9 104.367C142.384 104.935 143.132 106.594 142.57 108.084C142.002 109.574 140.343 110.322 138.853 109.753Z" fill="#770BE3"/>
    <path d="M74.8383 127.398C75.3732 120.284 81.5736 114.95 88.6879 115.485C95.4842 115.996 100.655 121.677 100.638 128.386C100.936 128.304 101.237 128.224 101.543 128.15C105.132 127.282 109.325 127.002 113.709 128.21C114.318 128.377 114.927 128.574 115.536 128.799C116.849 122.204 122.907 117.475 129.783 117.992C137.216 118.551 142.789 125.03 142.231 132.464C141.672 139.897 135.193 145.471 127.759 144.912C121.477 144.44 116.523 139.739 115.477 133.807C114.463 133.323 113.461 132.953 112.478 132.682C109.022 131.73 105.649 131.929 102.635 132.658C101.537 132.924 100.494 133.258 99.5209 133.629C97.3628 138.468 92.3391 141.669 86.7513 141.249C79.637 140.714 74.3035 134.513 74.8383 127.398Z" fill="#770BE3"/>
    <path d="M128.128 0C129.523 0 130.222 1.68652 129.236 2.67287L109.766 22.1428C109.154 22.7543 108.163 22.7543 107.551 22.1428L88.0814 2.67287C87.095 1.68652 87.7936 1.46624e-07 89.1885 1.46624e-07L128.128 0Z" fill="white"/>
</svg>
